<svg x="0" y="0" width="48" height="48" version="1.1" xmlns="http://www.w3.org/2000/svg" xmlns:xlink="http://www.w3.org/1999/xlink"><defs><linearGradient x1="8.46611" y1="13.95578" x2="66.30192" y2="60.81224" gradientUnits="userSpaceOnUse" id="color-1"><stop offset="0" stop-color="#000000" stop-opacity="0.7"></stop><stop offset="1" stop-color="#000000" stop-opacity="0"></stop></linearGradient><filter id="dropshadow"><feColorMatrix type="matrix" values="0 0 0 0 .05  0 0 0 0 .15  0 0 0 0 .1  0 0 0 .8 0"></feColorMatrix> <feOffset dx="0" dy="1"></feOffset> <feGaussianBlur stdDeviation="1"></feGaussianBlur> <feComposite in="SourceGraphic"></feComposite></filter></defs><g fill="none" stroke="none" stroke-width="none" stroke-linecap="butt" stroke-linejoin="miter" stroke-miterlimit="none" stroke-dasharray="" stroke-dashoffset="0" font-family="none" font-weight="normal" font-size="none" text-anchor="start" mix-blend-mode="normal"><g id="Capa_1" fill="#000000" stroke="none" stroke-width="1" stroke-miterlimit="4" font-family="&quot;Open Sans&quot;, sans-serif" font-size="14"><g><g></g></g><g></g><g></g><g></g><g></g><g></g><g></g><g></g><g></g><g></g><g></g><g></g><g></g><g></g><g></g><g></g></g><path d="M3,24c0,-11.59798 9.40202,-21 21,-21c11.59798,0 21,9.40202 21,21c0,11.59798 -9.40202,21 -21,21c-11.59798,0 -21,-9.40202 -21,-21z" fill="#a82d2d" stroke-width="1" stroke-miterlimit="10" font-family="sans-serif" font-size="12" filter="url(#dropshadow)"></path><path d="M21.41836,44.84289l-11.03431,-11.03431c-0.14559,-0.14559 -0.23564,-0.34672 -0.23564,-0.56888l0,-13.11179l-1.46194,-1.46194c0.00087,0.00087 0.00173,0.00173 0.00261,0.00259l-0.00261,-0.00261c-0.13614,-0.13614 -0.22035,-0.32423 -0.22036,-0.53197c0,0 0,-0.00001 0,-0.00001l0,-1.26407l2.01642,2.01642l0.00003,0l-2.01643,-2.01643c0,-0.41554 0.33684,-0.75242 0.75234,-0.75238l4.49244,0l0,-1.40937c0,0 4.17819,4.17819 4.17819,4.17819l0.00001,0c0,0 -4.1782,-4.1782 -4.1782,-4.1782c0,-0.4155 0.33684,-0.75234 0.75234,-0.75234l3.24026,0c0.20775,0 0.39583,0.0842 0.53199,0.22036l1.94137,1.94137c0,0 9.66166,0 9.66166,0c0,0 0,-1.40937 0,-1.40937c0,0 4.17819,4.17819 4.17819,4.17819l0.00001,0l-4.1782,-4.1782c0,-0.4155 0.33684,-0.75234 0.75234,-0.75234l3.24026,0c0.20775,0 0.39583,0.0842 0.53199,0.22036l1.94137,1.94137l2.47705,0l0.00001,0.00001c0.20775,0 0.39583,0.0842 0.53199,0.22036l5.58504,5.58504c0.06709,0.68328 0.10142,1.37617 0.10142,2.07708c0,11.59798 -9.40202,21 -21,21c-0.87405,0 -1.73562,-0.0534 -2.58164,-0.15711z" fill="url(#color-1)" stroke-width="1" stroke-miterlimit="10" font-family="sans-serif" font-size="12"></path><path d="M10.14841,19.71429l27.70318,0l0,13.52541c0,0.44432 -0.36019,0.80452 -0.80452,0.80452l-26.09415,0c-0.44432,0 -0.80452,-0.36019 -0.80452,-0.80452z M38.78154,18.88625l-0.92995,0.00007l-28.63313,0c-0.41551,0 -0.75235,-0.33684 -0.75235,-0.75235l0,-1.26407c0,-0.41554 0.33684,-0.75242 0.75235,-0.75238l4.49244,0l0,-1.40938c0,-0.41551 0.33684,-0.75235 0.75235,-0.75235l3.24026,0c0.41551,0 0.75235,0.33684 0.75235,0.75235l0,1.40938l11.38266,0l0,-1.40938c0,-0.41551 0.33684,-0.75235 0.75235,-0.75235l3.24026,0c0.41551,0 0.75235,0.33684 0.75235,0.75235l0,1.40938l4.19806,0c0.41551,0 0.75235,0.33684 0.75235,0.75235l0,1.26404c0,0.41551 -0.33684,0.75235 -0.75235,0.75235z M13.52923,25.19311c0,0.20171 0.16355,0.36526 0.36529,0.36526l1.21767,0l0,1.2177c0,0.20171 0.16355,0.36526 0.36529,0.36526l0.95141,0c0.20174,0 0.36529,-0.16352 0.36529,-0.36526l0,-1.2177l1.21767,0c0.20174,0 0.36529,-0.16352 0.36529,-0.36526l0,-0.95148c0,-0.20174 -0.16355,-0.36529 -0.36529,-0.36529l-1.21767,0l0,-1.21886c0,-0.20171 -0.16355,-0.36526 -0.36529,-0.36526l-0.95141,0c-0.20174,0 -0.36529,0.16352 -0.36529,0.36526l0,1.21886l-1.21767,0c-0.20174,0 -0.36529,0.16355 -0.36529,0.36529z M29.98806,25.17287c0,0.21261 0.17233,0.38494 0.38494,0.38494l3.71283,0c0.21261,0 0.38494,-0.17233 0.38494,-0.38494l0,-0.91216c0,-0.21261 -0.17233,-0.38494 -0.38494,-0.38494l-3.71283,0c-0.21261,0 -0.38494,0.17233 -0.38494,0.38494z" fill="#ffffff" stroke-width="0" stroke-miterlimit="10" font-family="sans-serif" font-size="12"></path></g></svg>